<?xml version="1.0" encoding="UTF-8" standalone="no"?>
<!DOCTYPE svg PUBLIC "-//W3C//DTD SVG 1.1//EN"
 "http://www.w3.org/Graphics/SVG/1.1/DTD/svg11.dtd">
<!-- Generated by graphviz version 2.50.0 (0)
 -->
<!-- Pages: 1 -->
<svg width="466pt" height="45pt"
 viewBox="0.00 0.00 466.00 45.00" xmlns="http://www.w3.org/2000/svg" xmlns:xlink="http://www.w3.org/1999/xlink">
<g id="graph0" class="graph" transform="scale(1 1) rotate(0) translate(4 41)">
<polygon fill="white" stroke="transparent" points="-4,4 -4,-41 462,-41 462,4 -4,4"/>
<!-- dat_0x092c344c89a901c2 -->
<g id="node1" class="node">
<title>dat_0x092c344c89a901c2</title>
<polygon fill="none" stroke="black" points="0,-0.5 0,-36.5 166,-36.5 166,-0.5 0,-0.5"/>
<text text-anchor="middle" x="11.5" y="-14.8" font-family="Times,serif" font-size="14.00">a</text>
<polyline fill="none" stroke="black" points="23,-0.5 23,-36.5 "/>
<text text-anchor="middle" x="58.5" y="-14.8" font-family="Times,serif" font-size="14.00">data: 1.00</text>
<polyline fill="none" stroke="black" points="94,-0.5 94,-36.5 "/>
<text text-anchor="middle" x="130" y="-14.8" font-family="Times,serif" font-size="14.00">grad: 2.00</text>
</g>
<!-- op_0x241e4ad571b97f70 -->
<g id="node3" class="node">
<title>op_0x241e4ad571b97f70</title>
<ellipse fill="none" stroke="black" cx="229" cy="-18.5" rx="27" ry="18"/>
<text text-anchor="middle" x="229" y="-14.8" font-family="Times,serif" font-size="14.00">+</text>
</g>
<!-- dat_0x092c344c89a901c2&#45;&gt;op_0x241e4ad571b97f70 -->
<g id="edge2" class="edge">
<title>dat_0x092c344c89a901c2&#45;&gt;op_0x241e4ad571b97f70</title>
<path fill="none" stroke="black" d="M166.1,-11.81C175.41,-11.92 184.49,-12.18 192.7,-12.6"/>
<polygon fill="black" stroke="black" points="192.74,-16.11 202.94,-13.23 193.17,-9.12 192.74,-16.11"/>
</g>
<!-- dat_0x092c344c89a901c2&#45;&gt;op_0x241e4ad571b97f70 -->
<g id="edge3" class="edge">
<title>dat_0x092c344c89a901c2&#45;&gt;op_0x241e4ad571b97f70</title>
<path fill="none" stroke="black" d="M166.1,-25.19C175.41,-25.08 184.49,-24.82 192.7,-24.4"/>
<polygon fill="black" stroke="black" points="193.17,-27.88 202.94,-23.77 192.74,-20.89 193.17,-27.88"/>
</g>
<!-- dat_0x241e4ad571b97f70 -->
<g id="node2" class="node">
<title>dat_0x241e4ad571b97f70</title>
<polygon fill="none" stroke="black" points="292,-0.5 292,-36.5 458,-36.5 458,-0.5 292,-0.5"/>
<text text-anchor="middle" x="303.5" y="-14.8" font-family="Times,serif" font-size="14.00">b</text>
<polyline fill="none" stroke="black" points="315,-0.5 315,-36.5 "/>
<text text-anchor="middle" x="350.5" y="-14.8" font-family="Times,serif" font-size="14.00">data: 2.00</text>
<polyline fill="none" stroke="black" points="386,-0.5 386,-36.5 "/>
<text text-anchor="middle" x="422" y="-14.8" font-family="Times,serif" font-size="14.00">grad: 1.00</text>
</g>
<!-- op_0x241e4ad571b97f70&#45;&gt;dat_0x241e4ad571b97f70 -->
<g id="edge1" class="edge">
<title>op_0x241e4ad571b97f70&#45;&gt;dat_0x241e4ad571b97f70</title>
<path fill="none" stroke="black" d="M256.08,-18.5C263.64,-18.5 272.35,-18.5 281.56,-18.5"/>
<polygon fill="black" stroke="black" points="281.7,-22 291.7,-18.5 281.7,-15 281.7,-22"/>
</g>
</g>
</svg>
