<?xml version="1.0" encoding="UTF-8" standalone="no"?>
<!DOCTYPE svg PUBLIC "-//W3C//DTD SVG 1.1//EN"
 "http://www.w3.org/Graphics/SVG/1.1/DTD/svg11.dtd">
<!-- Generated by graphviz version 2.50.0 (0)
 -->
<!-- Pages: 1 -->
<svg width="2370pt" height="210pt"
 viewBox="0.00 0.00 2369.59 210.00" xmlns="http://www.w3.org/2000/svg" xmlns:xlink="http://www.w3.org/1999/xlink">
<g id="graph0" class="graph" transform="scale(1 1) rotate(0) translate(4 206)">
<polygon fill="white" stroke="transparent" points="-4,4 -4,-206 2365.59,-206 2365.59,4 -4,4"/>
<!-- dat_0x341c8e78b0287173 -->
<g id="node1" class="node">
<title>dat_0x341c8e78b0287173</title>
<polygon fill="none" stroke="black" points="600.5,-110.5 600.5,-146.5 763.5,-146.5 763.5,-110.5 600.5,-110.5"/>
<text text-anchor="middle" x="610.5" y="-124.8" font-family="Times,serif" font-size="14.00"> </text>
<polyline fill="none" stroke="black" points="620.5,-110.5 620.5,-146.5 "/>
<text text-anchor="middle" x="656" y="-124.8" font-family="Times,serif" font-size="14.00">data: 2.00</text>
<polyline fill="none" stroke="black" points="691.5,-110.5 691.5,-146.5 "/>
<text text-anchor="middle" x="727.5" y="-124.8" font-family="Times,serif" font-size="14.00">grad: 0.22</text>
</g>
<!-- op_0x9cb7f87914f2cfbf -->
<g id="node14" class="node">
<title>op_0x9cb7f87914f2cfbf</title>
<ellipse fill="none" stroke="black" cx="828" cy="-100.5" rx="27" ry="18"/>
<text text-anchor="middle" x="828" y="-96.8" font-family="Times,serif" font-size="14.00">*</text>
</g>
<!-- dat_0x341c8e78b0287173&#45;&gt;op_0x9cb7f87914f2cfbf -->
<g id="edge12" class="edge">
<title>dat_0x341c8e78b0287173&#45;&gt;op_0x9cb7f87914f2cfbf</title>
<path fill="none" stroke="black" d="M763.84,-112.78C773.68,-110.87 783.31,-109 791.95,-107.31"/>
<polygon fill="black" stroke="black" points="792.82,-110.71 801.96,-105.37 791.48,-103.84 792.82,-110.71"/>
</g>
<!-- dat_0x6d51ed072039871b -->
<g id="node2" class="node">
<title>dat_0x6d51ed072039871b</title>
<polygon fill="none" stroke="black" points="1,-165.5 1,-201.5 179,-201.5 179,-165.5 1,-165.5"/>
<text text-anchor="middle" x="16" y="-179.8" font-family="Times,serif" font-size="14.00">x1</text>
<polyline fill="none" stroke="black" points="31,-165.5 31,-201.5 "/>
<text text-anchor="middle" x="66.5" y="-179.8" font-family="Times,serif" font-size="14.00">data: 2.00</text>
<polyline fill="none" stroke="black" points="102,-165.5 102,-201.5 "/>
<text text-anchor="middle" x="140.5" y="-179.8" font-family="Times,serif" font-size="14.00">grad: &#45;1.50</text>
</g>
<!-- op_0x90a77ce1712e7a24 -->
<g id="node5" class="node">
<title>op_0x90a77ce1712e7a24</title>
<ellipse fill="none" stroke="black" cx="243" cy="-128.5" rx="27" ry="18"/>
<text text-anchor="middle" x="243" y="-124.8" font-family="Times,serif" font-size="14.00">*</text>
</g>
<!-- dat_0x6d51ed072039871b&#45;&gt;op_0x90a77ce1712e7a24 -->
<g id="edge2" class="edge">
<title>dat_0x6d51ed072039871b&#45;&gt;op_0x90a77ce1712e7a24</title>
<path fill="none" stroke="black" d="M154.07,-165.48C162.84,-162.65 171.69,-159.62 180,-156.5 190.47,-152.57 201.68,-147.71 211.65,-143.15"/>
<polygon fill="black" stroke="black" points="213.18,-146.3 220.77,-138.91 210.22,-139.96 213.18,-146.3"/>
</g>
<!-- dat_0x8f7628cdabc507ee -->
<g id="node3" class="node">
<title>dat_0x8f7628cdabc507ee</title>
<polygon fill="none" stroke="black" points="0,-110.5 0,-146.5 180,-146.5 180,-110.5 0,-110.5"/>
<text text-anchor="middle" x="16.5" y="-124.8" font-family="Times,serif" font-size="14.00">w1</text>
<polyline fill="none" stroke="black" points="33,-110.5 33,-146.5 "/>
<text text-anchor="middle" x="70.5" y="-124.8" font-family="Times,serif" font-size="14.00">data: &#45;3.00</text>
<polyline fill="none" stroke="black" points="108,-110.5 108,-146.5 "/>
<text text-anchor="middle" x="144" y="-124.8" font-family="Times,serif" font-size="14.00">grad: 1.00</text>
</g>
<!-- dat_0x8f7628cdabc507ee&#45;&gt;op_0x90a77ce1712e7a24 -->
<g id="edge3" class="edge">
<title>dat_0x8f7628cdabc507ee&#45;&gt;op_0x90a77ce1712e7a24</title>
<path fill="none" stroke="black" d="M180.15,-128.5C189.1,-128.5 197.79,-128.5 205.69,-128.5"/>
<polygon fill="black" stroke="black" points="205.92,-132 215.92,-128.5 205.92,-125 205.92,-132"/>
</g>
<!-- dat_0x90a77ce1712e7a24 -->
<g id="node4" class="node">
<title>dat_0x90a77ce1712e7a24</title>
<polygon fill="none" stroke="black" points="306,-110.5 306,-146.5 473,-146.5 473,-110.5 306,-110.5"/>
<text text-anchor="middle" x="316" y="-124.8" font-family="Times,serif" font-size="14.00"> </text>
<polyline fill="none" stroke="black" points="326,-110.5 326,-146.5 "/>
<text text-anchor="middle" x="363.5" y="-124.8" font-family="Times,serif" font-size="14.00">data: &#45;6.00</text>
<polyline fill="none" stroke="black" points="401,-110.5 401,-146.5 "/>
<text text-anchor="middle" x="437" y="-124.8" font-family="Times,serif" font-size="14.00">grad: 0.50</text>
</g>
<!-- op_0x2afd185dcbc27981 -->
<g id="node12" class="node">
<title>op_0x2afd185dcbc27981</title>
<ellipse fill="none" stroke="black" cx="536" cy="-73.5" rx="27" ry="18"/>
<text text-anchor="middle" x="536" y="-69.8" font-family="Times,serif" font-size="14.00">+</text>
</g>
<!-- dat_0x90a77ce1712e7a24&#45;&gt;op_0x2afd185dcbc27981 -->
<g id="edge8" class="edge">
<title>dat_0x90a77ce1712e7a24&#45;&gt;op_0x2afd185dcbc27981</title>
<path fill="none" stroke="black" d="M448.48,-110.4C456.76,-107.56 465.13,-104.55 473,-101.5 483.43,-97.45 494.63,-92.57 504.6,-88.02"/>
<polygon fill="black" stroke="black" points="506.12,-91.17 513.72,-83.8 503.18,-84.82 506.12,-91.17"/>
</g>
<!-- op_0x90a77ce1712e7a24&#45;&gt;dat_0x90a77ce1712e7a24 -->
<g id="edge1" class="edge">
<title>op_0x90a77ce1712e7a24&#45;&gt;dat_0x90a77ce1712e7a24</title>
<path fill="none" stroke="black" d="M270.17,-128.5C277.75,-128.5 286.5,-128.5 295.74,-128.5"/>
<polygon fill="black" stroke="black" points="295.92,-132 305.92,-128.5 295.92,-125 295.92,-132"/>
</g>
<!-- dat_0xd177f6b16cc949a3 -->
<g id="node6" class="node">
<title>dat_0xd177f6b16cc949a3</title>
<polygon fill="none" stroke="black" points="3.5,-55.5 3.5,-91.5 176.5,-91.5 176.5,-55.5 3.5,-55.5"/>
<text text-anchor="middle" x="18.5" y="-69.8" font-family="Times,serif" font-size="14.00">x2</text>
<polyline fill="none" stroke="black" points="33.5,-55.5 33.5,-91.5 "/>
<text text-anchor="middle" x="69" y="-69.8" font-family="Times,serif" font-size="14.00">data: 0.00</text>
<polyline fill="none" stroke="black" points="104.5,-55.5 104.5,-91.5 "/>
<text text-anchor="middle" x="140.5" y="-69.8" font-family="Times,serif" font-size="14.00">grad: 0.50</text>
</g>
<!-- op_0x00b7c2b989e827c5 -->
<g id="node9" class="node">
<title>op_0x00b7c2b989e827c5</title>
<ellipse fill="none" stroke="black" cx="243" cy="-73.5" rx="27" ry="18"/>
<text text-anchor="middle" x="243" y="-69.8" font-family="Times,serif" font-size="14.00">*</text>
</g>
<!-- dat_0xd177f6b16cc949a3&#45;&gt;op_0x00b7c2b989e827c5 -->
<g id="edge5" class="edge">
<title>dat_0xd177f6b16cc949a3&#45;&gt;op_0x00b7c2b989e827c5</title>
<path fill="none" stroke="black" d="M176.65,-73.5C186.89,-73.5 196.87,-73.5 205.83,-73.5"/>
<polygon fill="black" stroke="black" points="205.83,-77 215.83,-73.5 205.83,-70 205.83,-77"/>
</g>
<!-- dat_0x4d205574ddd96502 -->
<g id="node7" class="node">
<title>dat_0x4d205574ddd96502</title>
<polygon fill="none" stroke="black" points="2,-0.5 2,-36.5 178,-36.5 178,-0.5 2,-0.5"/>
<text text-anchor="middle" x="18.5" y="-14.8" font-family="Times,serif" font-size="14.00">w2</text>
<polyline fill="none" stroke="black" points="35,-0.5 35,-36.5 "/>
<text text-anchor="middle" x="70.5" y="-14.8" font-family="Times,serif" font-size="14.00">data: 1.00</text>
<polyline fill="none" stroke="black" points="106,-0.5 106,-36.5 "/>
<text text-anchor="middle" x="142" y="-14.8" font-family="Times,serif" font-size="14.00">grad: 0.00</text>
</g>
<!-- dat_0x4d205574ddd96502&#45;&gt;op_0x00b7c2b989e827c5 -->
<g id="edge6" class="edge">
<title>dat_0x4d205574ddd96502&#45;&gt;op_0x00b7c2b989e827c5</title>
<path fill="none" stroke="black" d="M154.07,-36.52C162.84,-39.35 171.69,-42.38 180,-45.5 190.47,-49.43 201.68,-54.29 211.65,-58.85"/>
<polygon fill="black" stroke="black" points="210.22,-62.04 220.77,-63.09 213.18,-55.7 210.22,-62.04"/>
</g>
<!-- dat_0x00b7c2b989e827c5 -->
<g id="node8" class="node">
<title>dat_0x00b7c2b989e827c5</title>
<polygon fill="none" stroke="black" points="308,-55.5 308,-91.5 471,-91.5 471,-55.5 308,-55.5"/>
<text text-anchor="middle" x="318" y="-69.8" font-family="Times,serif" font-size="14.00"> </text>
<polyline fill="none" stroke="black" points="328,-55.5 328,-91.5 "/>
<text text-anchor="middle" x="363.5" y="-69.8" font-family="Times,serif" font-size="14.00">data: 0.00</text>
<polyline fill="none" stroke="black" points="399,-55.5 399,-91.5 "/>
<text text-anchor="middle" x="435" y="-69.8" font-family="Times,serif" font-size="14.00">grad: 0.50</text>
</g>
<!-- dat_0x00b7c2b989e827c5&#45;&gt;op_0x2afd185dcbc27981 -->
<g id="edge9" class="edge">
<title>dat_0x00b7c2b989e827c5&#45;&gt;op_0x2afd185dcbc27981</title>
<path fill="none" stroke="black" d="M471.2,-73.5C480.75,-73.5 490.09,-73.5 498.56,-73.5"/>
<polygon fill="black" stroke="black" points="498.76,-77 508.76,-73.5 498.76,-70 498.76,-77"/>
</g>
<!-- op_0x00b7c2b989e827c5&#45;&gt;dat_0x00b7c2b989e827c5 -->
<g id="edge4" class="edge">
<title>op_0x00b7c2b989e827c5&#45;&gt;dat_0x00b7c2b989e827c5</title>
<path fill="none" stroke="black" d="M270.17,-73.5C278.28,-73.5 287.72,-73.5 297.67,-73.5"/>
<polygon fill="black" stroke="black" points="297.76,-77 307.76,-73.5 297.76,-70 297.76,-77"/>
</g>
<!-- dat_0x34b1e92d75c7887a -->
<g id="node10" class="node">
<title>dat_0x34b1e92d75c7887a</title>
<polygon fill="none" stroke="black" points="306.5,-0.5 306.5,-36.5 472.5,-36.5 472.5,-0.5 306.5,-0.5"/>
<text text-anchor="middle" x="318" y="-14.8" font-family="Times,serif" font-size="14.00">b</text>
<polyline fill="none" stroke="black" points="329.5,-0.5 329.5,-36.5 "/>
<text text-anchor="middle" x="365" y="-14.8" font-family="Times,serif" font-size="14.00">data: 6.88</text>
<polyline fill="none" stroke="black" points="400.5,-0.5 400.5,-36.5 "/>
<text text-anchor="middle" x="436.5" y="-14.8" font-family="Times,serif" font-size="14.00">grad: 0.50</text>
</g>
<!-- dat_0x34b1e92d75c7887a&#45;&gt;op_0x2afd185dcbc27981 -->
<g id="edge10" class="edge">
<title>dat_0x34b1e92d75c7887a&#45;&gt;op_0x2afd185dcbc27981</title>
<path fill="none" stroke="black" d="M448.48,-36.6C456.76,-39.44 465.13,-42.45 473,-45.5 483.43,-49.55 494.63,-54.43 504.6,-58.98"/>
<polygon fill="black" stroke="black" points="503.18,-62.18 513.72,-63.2 506.12,-55.83 503.18,-62.18"/>
</g>
<!-- dat_0x2afd185dcbc27981 -->
<g id="node11" class="node">
<title>dat_0x2afd185dcbc27981</title>
<polygon fill="none" stroke="black" points="599,-55.5 599,-91.5 765,-91.5 765,-55.5 599,-55.5"/>
<text text-anchor="middle" x="610.5" y="-69.8" font-family="Times,serif" font-size="14.00">n</text>
<polyline fill="none" stroke="black" points="622,-55.5 622,-91.5 "/>
<text text-anchor="middle" x="657.5" y="-69.8" font-family="Times,serif" font-size="14.00">data: 0.88</text>
<polyline fill="none" stroke="black" points="693,-55.5 693,-91.5 "/>
<text text-anchor="middle" x="729" y="-69.8" font-family="Times,serif" font-size="14.00">grad: 0.50</text>
</g>
<!-- dat_0x2afd185dcbc27981&#45;&gt;op_0x9cb7f87914f2cfbf -->
<g id="edge13" class="edge">
<title>dat_0x2afd185dcbc27981&#45;&gt;op_0x9cb7f87914f2cfbf</title>
<path fill="none" stroke="black" d="M765.1,-88.89C774.42,-90.64 783.52,-92.35 791.74,-93.89"/>
<polygon fill="black" stroke="black" points="791.17,-97.34 801.64,-95.74 792.46,-90.46 791.17,-97.34"/>
</g>
<!-- op_0x2afd185dcbc27981&#45;&gt;dat_0x2afd185dcbc27981 -->
<g id="edge7" class="edge">
<title>op_0x2afd185dcbc27981&#45;&gt;dat_0x2afd185dcbc27981</title>
<path fill="none" stroke="black" d="M563.08,-73.5C570.64,-73.5 579.35,-73.5 588.56,-73.5"/>
<polygon fill="black" stroke="black" points="588.7,-77 598.7,-73.5 588.7,-70 588.7,-77"/>
</g>
<!-- dat_0x9cb7f87914f2cfbf -->
<g id="node13" class="node">
<title>dat_0x9cb7f87914f2cfbf</title>
<polygon fill="none" stroke="black" points="893.5,-82.5 893.5,-118.5 1056.5,-118.5 1056.5,-82.5 893.5,-82.5"/>
<text text-anchor="middle" x="903.5" y="-96.8" font-family="Times,serif" font-size="14.00"> </text>
<polyline fill="none" stroke="black" points="913.5,-82.5 913.5,-118.5 "/>
<text text-anchor="middle" x="949" y="-96.8" font-family="Times,serif" font-size="14.00">data: 1.76</text>
<polyline fill="none" stroke="black" points="984.5,-82.5 984.5,-118.5 "/>
<text text-anchor="middle" x="1020.5" y="-96.8" font-family="Times,serif" font-size="14.00">grad: 0.25</text>
</g>
<!-- op_0xef6726c150975911 -->
<g id="node16" class="node">
<title>op_0xef6726c150975911</title>
<ellipse fill="none" stroke="black" cx="1128.8" cy="-100.5" rx="27" ry="18"/>
<text text-anchor="middle" x="1128.8" y="-96.8" font-family="Times,serif" font-size="14.00">exp</text>
</g>
<!-- dat_0x9cb7f87914f2cfbf&#45;&gt;op_0xef6726c150975911 -->
<g id="edge15" class="edge">
<title>dat_0x9cb7f87914f2cfbf&#45;&gt;op_0xef6726c150975911</title>
<path fill="none" stroke="black" d="M1056.79,-100.5C1069,-100.5 1081.05,-100.5 1091.65,-100.5"/>
<polygon fill="black" stroke="black" points="1091.72,-104 1101.72,-100.5 1091.72,-97 1091.72,-104"/>
</g>
<!-- op_0x9cb7f87914f2cfbf&#45;&gt;dat_0x9cb7f87914f2cfbf -->
<g id="edge11" class="edge">
<title>op_0x9cb7f87914f2cfbf&#45;&gt;dat_0x9cb7f87914f2cfbf</title>
<path fill="none" stroke="black" d="M855.26,-100.5C863.46,-100.5 873.02,-100.5 883.08,-100.5"/>
<polygon fill="black" stroke="black" points="883.28,-104 893.28,-100.5 883.28,-97 883.28,-104"/>
</g>
<!-- dat_0xef6726c150975911 -->
<g id="node15" class="node">
<title>dat_0xef6726c150975911</title>
<polygon fill="none" stroke="black" points="1201.09,-82.5 1201.09,-118.5 1364.09,-118.5 1364.09,-82.5 1201.09,-82.5"/>
<text text-anchor="middle" x="1211.09" y="-96.8" font-family="Times,serif" font-size="14.00"> </text>
<polyline fill="none" stroke="black" points="1221.09,-82.5 1221.09,-118.5 "/>
<text text-anchor="middle" x="1256.59" y="-96.8" font-family="Times,serif" font-size="14.00">data: 5.83</text>
<polyline fill="none" stroke="black" points="1292.09,-82.5 1292.09,-118.5 "/>
<text text-anchor="middle" x="1328.09" y="-96.8" font-family="Times,serif" font-size="14.00">grad: 0.04</text>
</g>
<!-- op_0x297e0c508671eacf -->
<g id="node21" class="node">
<title>op_0x297e0c508671eacf</title>
<ellipse fill="none" stroke="black" cx="1429.59" cy="-127.5" rx="27" ry="18"/>
<text text-anchor="middle" x="1429.59" y="-123.8" font-family="Times,serif" font-size="14.00">+</text>
</g>
<!-- dat_0xef6726c150975911&#45;&gt;op_0x297e0c508671eacf -->
<g id="edge19" class="edge">
<title>dat_0xef6726c150975911&#45;&gt;op_0x297e0c508671eacf</title>
<path fill="none" stroke="black" d="M1364.15,-115.5C1374.36,-117.4 1384.36,-119.26 1393.32,-120.93"/>
<polygon fill="black" stroke="black" points="1392.84,-124.4 1403.31,-122.79 1394.12,-117.52 1392.84,-124.4"/>
</g>
<!-- op_0xa8bd0f3cdc3dd2e2 -->
<g id="node24" class="node">
<title>op_0xa8bd0f3cdc3dd2e2</title>
<ellipse fill="none" stroke="black" cx="1429.59" cy="-72.5" rx="27" ry="18"/>
<text text-anchor="middle" x="1429.59" y="-68.8" font-family="Times,serif" font-size="14.00">+</text>
</g>
<!-- dat_0xef6726c150975911&#45;&gt;op_0xa8bd0f3cdc3dd2e2 -->
<g id="edge22" class="edge">
<title>dat_0xef6726c150975911&#45;&gt;op_0xa8bd0f3cdc3dd2e2</title>
<path fill="none" stroke="black" d="M1364.15,-84.94C1374.36,-82.97 1384.36,-81.04 1393.32,-79.31"/>
<polygon fill="black" stroke="black" points="1394.15,-82.72 1403.31,-77.38 1392.82,-75.84 1394.15,-82.72"/>
</g>
<!-- op_0xef6726c150975911&#45;&gt;dat_0xef6726c150975911 -->
<g id="edge14" class="edge">
<title>op_0xef6726c150975911&#45;&gt;dat_0xef6726c150975911</title>
<path fill="none" stroke="black" d="M1155.89,-100.5C1165.92,-100.5 1178.04,-100.5 1190.73,-100.5"/>
<polygon fill="black" stroke="black" points="1191.01,-104 1201.01,-100.5 1191.01,-97 1191.01,-104"/>
</g>
<!-- dat_0x563edc0a2310cd2a -->
<g id="node17" class="node">
<title>dat_0x563edc0a2310cd2a</title>
<polygon fill="none" stroke="black" points="891,-137.5 891,-173.5 1059,-173.5 1059,-137.5 891,-137.5"/>
<text text-anchor="middle" x="901" y="-151.8" font-family="Times,serif" font-size="14.00"> </text>
<polyline fill="none" stroke="black" points="911,-137.5 911,-173.5 "/>
<text text-anchor="middle" x="946.5" y="-151.8" font-family="Times,serif" font-size="14.00">data: 1.00</text>
<polyline fill="none" stroke="black" points="982,-137.5 982,-173.5 "/>
<text text-anchor="middle" x="1020.5" y="-151.8" font-family="Times,serif" font-size="14.00">grad: &#45;0.15</text>
</g>
<!-- op_0xf079b73579c44858 -->
<g id="node19" class="node">
<title>op_0xf079b73579c44858</title>
<ellipse fill="none" stroke="black" cx="1128.8" cy="-155.5" rx="33.6" ry="18"/>
<text text-anchor="middle" x="1128.8" y="-151.8" font-family="Times,serif" font-size="14.00">negate</text>
</g>
<!-- dat_0x563edc0a2310cd2a&#45;&gt;op_0xf079b73579c44858 -->
<g id="edge17" class="edge">
<title>dat_0x563edc0a2310cd2a&#45;&gt;op_0xf079b73579c44858</title>
<path fill="none" stroke="black" d="M1059,-155.5C1067.86,-155.5 1076.59,-155.5 1084.69,-155.5"/>
<polygon fill="black" stroke="black" points="1084.95,-159 1094.95,-155.5 1084.95,-152 1084.95,-159"/>
</g>
<!-- dat_0xf079b73579c44858 -->
<g id="node18" class="node">
<title>dat_0xf079b73579c44858</title>
<polygon fill="none" stroke="black" points="1199.09,-137.5 1199.09,-173.5 1366.09,-173.5 1366.09,-137.5 1199.09,-137.5"/>
<text text-anchor="middle" x="1209.09" y="-151.8" font-family="Times,serif" font-size="14.00"> </text>
<polyline fill="none" stroke="black" points="1219.09,-137.5 1219.09,-173.5 "/>
<text text-anchor="middle" x="1256.59" y="-151.8" font-family="Times,serif" font-size="14.00">data: &#45;1.00</text>
<polyline fill="none" stroke="black" points="1294.09,-137.5 1294.09,-173.5 "/>
<text text-anchor="middle" x="1330.09" y="-151.8" font-family="Times,serif" font-size="14.00">grad: 0.15</text>
</g>
<!-- dat_0xf079b73579c44858&#45;&gt;op_0x297e0c508671eacf -->
<g id="edge20" class="edge">
<title>dat_0xf079b73579c44858&#45;&gt;op_0x297e0c508671eacf</title>
<path fill="none" stroke="black" d="M1366.26,-139.54C1375.74,-137.71 1384.98,-135.92 1393.32,-134.31"/>
<polygon fill="black" stroke="black" points="1394.2,-137.71 1403.36,-132.37 1392.88,-130.83 1394.2,-137.71"/>
</g>
<!-- op_0xf079b73579c44858&#45;&gt;dat_0xf079b73579c44858 -->
<g id="edge16" class="edge">
<title>op_0xf079b73579c44858&#45;&gt;dat_0xf079b73579c44858</title>
<path fill="none" stroke="black" d="M1162.73,-155.5C1170.68,-155.5 1179.55,-155.5 1188.78,-155.5"/>
<polygon fill="black" stroke="black" points="1188.9,-159 1198.9,-155.5 1188.9,-152 1188.9,-159"/>
</g>
<!-- dat_0x297e0c508671eacf -->
<g id="node20" class="node">
<title>dat_0x297e0c508671eacf</title>
<polygon fill="none" stroke="black" points="1696.59,-109.5 1696.59,-145.5 1859.59,-145.5 1859.59,-109.5 1696.59,-109.5"/>
<text text-anchor="middle" x="1706.59" y="-123.8" font-family="Times,serif" font-size="14.00"> </text>
<polyline fill="none" stroke="black" points="1716.59,-109.5 1716.59,-145.5 "/>
<text text-anchor="middle" x="1752.09" y="-123.8" font-family="Times,serif" font-size="14.00">data: 4.83</text>
<polyline fill="none" stroke="black" points="1787.59,-109.5 1787.59,-145.5 "/>
<text text-anchor="middle" x="1823.59" y="-123.8" font-family="Times,serif" font-size="14.00">grad: 0.15</text>
</g>
<!-- op_0x60a994156f2392a2 -->
<g id="node28" class="node">
<title>op_0x60a994156f2392a2</title>
<ellipse fill="none" stroke="black" cx="2121.59" cy="-99.5" rx="27" ry="18"/>
<text text-anchor="middle" x="2121.59" y="-95.8" font-family="Times,serif" font-size="14.00">*</text>
</g>
<!-- dat_0x297e0c508671eacf&#45;&gt;op_0x60a994156f2392a2 -->
<g id="edge27" class="edge">
<title>dat_0x297e0c508671eacf&#45;&gt;op_0x60a994156f2392a2</title>
<path fill="none" stroke="black" d="M1860.02,-120.86C1931.07,-115.04 2031.11,-106.84 2084.19,-102.48"/>
<polygon fill="black" stroke="black" points="2084.79,-105.95 2094.47,-101.64 2084.22,-98.97 2084.79,-105.95"/>
</g>
<!-- op_0x297e0c508671eacf&#45;&gt;dat_0x297e0c508671eacf -->
<g id="edge18" class="edge">
<title>op_0x297e0c508671eacf&#45;&gt;dat_0x297e0c508671eacf</title>
<path fill="none" stroke="black" d="M1456.64,-127.5C1504.76,-127.5 1609.7,-127.5 1686.43,-127.5"/>
<polygon fill="black" stroke="black" points="1686.58,-131 1696.58,-127.5 1686.58,-124 1686.58,-131"/>
</g>
<!-- dat_0xc66c7215c3f5cfbf -->
<g id="node22" class="node">
<title>dat_0xc66c7215c3f5cfbf</title>
<polygon fill="none" stroke="black" points="1198.59,-27.5 1198.59,-63.5 1366.59,-63.5 1366.59,-27.5 1198.59,-27.5"/>
<text text-anchor="middle" x="1208.59" y="-41.8" font-family="Times,serif" font-size="14.00"> </text>
<polyline fill="none" stroke="black" points="1218.59,-27.5 1218.59,-63.5 "/>
<text text-anchor="middle" x="1254.09" y="-41.8" font-family="Times,serif" font-size="14.00">data: 1.00</text>
<polyline fill="none" stroke="black" points="1289.59,-27.5 1289.59,-63.5 "/>
<text text-anchor="middle" x="1328.09" y="-41.8" font-family="Times,serif" font-size="14.00">grad: &#45;0.10</text>
</g>
<!-- dat_0xc66c7215c3f5cfbf&#45;&gt;op_0xa8bd0f3cdc3dd2e2 -->
<g id="edge23" class="edge">
<title>dat_0xc66c7215c3f5cfbf&#45;&gt;op_0xa8bd0f3cdc3dd2e2</title>
<path fill="none" stroke="black" d="M1366.68,-60.97C1376.02,-62.71 1385.13,-64.41 1393.35,-65.94"/>
<polygon fill="black" stroke="black" points="1392.78,-69.39 1403.25,-67.78 1394.06,-62.51 1392.78,-69.39"/>
</g>
<!-- dat_0xa8bd0f3cdc3dd2e2 -->
<g id="node23" class="node">
<title>dat_0xa8bd0f3cdc3dd2e2</title>
<polygon fill="none" stroke="black" points="1492.59,-54.5 1492.59,-90.5 1660.59,-90.5 1660.59,-54.5 1492.59,-54.5"/>
<text text-anchor="middle" x="1502.59" y="-68.8" font-family="Times,serif" font-size="14.00"> </text>
<polyline fill="none" stroke="black" points="1512.59,-54.5 1512.59,-90.5 "/>
<text text-anchor="middle" x="1548.09" y="-68.8" font-family="Times,serif" font-size="14.00">data: 6.83</text>
<polyline fill="none" stroke="black" points="1583.59,-54.5 1583.59,-90.5 "/>
<text text-anchor="middle" x="1622.09" y="-68.8" font-family="Times,serif" font-size="14.00">grad: &#45;0.10</text>
</g>
<!-- op_0x6fc0a54771b7a715 -->
<g id="node26" class="node">
<title>op_0x6fc0a54771b7a715</title>
<ellipse fill="none" stroke="black" cx="1778.09" cy="-72.5" rx="27" ry="18"/>
<text text-anchor="middle" x="1778.09" y="-68.8" font-family="Times,serif" font-size="14.00">inv</text>
</g>
<!-- dat_0xa8bd0f3cdc3dd2e2&#45;&gt;op_0x6fc0a54771b7a715 -->
<g id="edge25" class="edge">
<title>dat_0xa8bd0f3cdc3dd2e2&#45;&gt;op_0x6fc0a54771b7a715</title>
<path fill="none" stroke="black" d="M1660.76,-72.5C1688.63,-72.5 1718.28,-72.5 1740.67,-72.5"/>
<polygon fill="black" stroke="black" points="1740.73,-76 1750.73,-72.5 1740.73,-69 1740.73,-76"/>
</g>
<!-- op_0xa8bd0f3cdc3dd2e2&#45;&gt;dat_0xa8bd0f3cdc3dd2e2 -->
<g id="edge21" class="edge">
<title>op_0xa8bd0f3cdc3dd2e2&#45;&gt;dat_0xa8bd0f3cdc3dd2e2</title>
<path fill="none" stroke="black" d="M1456.85,-72.5C1464.4,-72.5 1473.1,-72.5 1482.29,-72.5"/>
<polygon fill="black" stroke="black" points="1482.42,-76 1492.42,-72.5 1482.42,-69 1482.42,-76"/>
</g>
<!-- dat_0x6fc0a54771b7a715 -->
<g id="node25" class="node">
<title>dat_0x6fc0a54771b7a715</title>
<polygon fill="none" stroke="black" points="1895.59,-58.5 1895.59,-94.5 2058.59,-94.5 2058.59,-58.5 1895.59,-58.5"/>
<text text-anchor="middle" x="1905.59" y="-72.8" font-family="Times,serif" font-size="14.00"> </text>
<polyline fill="none" stroke="black" points="1915.59,-58.5 1915.59,-94.5 "/>
<text text-anchor="middle" x="1951.09" y="-72.8" font-family="Times,serif" font-size="14.00">data: 0.15</text>
<polyline fill="none" stroke="black" points="1986.59,-58.5 1986.59,-94.5 "/>
<text text-anchor="middle" x="2022.59" y="-72.8" font-family="Times,serif" font-size="14.00">grad: 4.83</text>
</g>
<!-- dat_0x6fc0a54771b7a715&#45;&gt;op_0x60a994156f2392a2 -->
<g id="edge28" class="edge">
<title>dat_0x6fc0a54771b7a715&#45;&gt;op_0x60a994156f2392a2</title>
<path fill="none" stroke="black" d="M2058.92,-89.55C2068.01,-91.01 2076.88,-92.44 2084.94,-93.74"/>
<polygon fill="black" stroke="black" points="2084.57,-97.23 2095,-95.37 2085.69,-90.32 2084.57,-97.23"/>
</g>
<!-- op_0x6fc0a54771b7a715&#45;&gt;dat_0x6fc0a54771b7a715 -->
<g id="edge24" class="edge">
<title>op_0x6fc0a54771b7a715&#45;&gt;dat_0x6fc0a54771b7a715</title>
<path fill="none" stroke="black" d="M1805.25,-73.03C1825.85,-73.45 1855.85,-74.06 1884.99,-74.65"/>
<polygon fill="black" stroke="black" points="1885.17,-78.15 1895.24,-74.86 1885.32,-71.16 1885.17,-78.15"/>
</g>
<!-- dat_0x60a994156f2392a2 -->
<g id="node27" class="node">
<title>dat_0x60a994156f2392a2</title>
<polygon fill="none" stroke="black" points="2184.59,-81.5 2184.59,-117.5 2361.59,-117.5 2361.59,-81.5 2184.59,-81.5"/>
<text text-anchor="middle" x="2201.59" y="-95.8" font-family="Times,serif" font-size="14.00">out</text>
<polyline fill="none" stroke="black" points="2218.59,-81.5 2218.59,-117.5 "/>
<text text-anchor="middle" x="2254.09" y="-95.8" font-family="Times,serif" font-size="14.00">data: 0.71</text>
<polyline fill="none" stroke="black" points="2289.59,-81.5 2289.59,-117.5 "/>
<text text-anchor="middle" x="2325.59" y="-95.8" font-family="Times,serif" font-size="14.00">grad: 1.00</text>
</g>
<!-- op_0x60a994156f2392a2&#45;&gt;dat_0x60a994156f2392a2 -->
<g id="edge26" class="edge">
<title>op_0x60a994156f2392a2&#45;&gt;dat_0x60a994156f2392a2</title>
<path fill="none" stroke="black" d="M2148.63,-99.5C2156.19,-99.5 2164.92,-99.5 2174.18,-99.5"/>
<polygon fill="black" stroke="black" points="2174.41,-103 2184.41,-99.5 2174.41,-96 2174.41,-103"/>
</g>
</g>
</svg>
