<?xml version="1.0" encoding="UTF-8" standalone="no"?>
<!DOCTYPE svg PUBLIC "-//W3C//DTD SVG 1.1//EN"
 "http://www.w3.org/Graphics/SVG/1.1/DTD/svg11.dtd">
<!-- Generated by graphviz version 2.50.0 (0)
 -->
<!-- Pages: 1 -->
<svg width="774pt" height="155pt"
 viewBox="0.00 0.00 774.00 155.00" xmlns="http://www.w3.org/2000/svg" xmlns:xlink="http://www.w3.org/1999/xlink">
<g id="graph0" class="graph" transform="scale(1 1) rotate(0) translate(4 151)">
<polygon fill="white" stroke="transparent" points="-4,4 -4,-151 770,-151 770,4 -4,4"/>
<!-- dat_0xecd3aa2310a50092 -->
<g id="node1" class="node">
<title>dat_0xecd3aa2310a50092</title>
<polygon fill="none" stroke="black" points="0,-55.5 0,-91.5 173,-91.5 173,-55.5 0,-55.5"/>
<text text-anchor="middle" x="11.5" y="-69.8" font-family="Times,serif" font-size="14.00">a</text>
<polyline fill="none" stroke="black" points="23,-55.5 23,-91.5 "/>
<text text-anchor="middle" x="58.5" y="-69.8" font-family="Times,serif" font-size="14.00">data: 2.00</text>
<polyline fill="none" stroke="black" points="94,-55.5 94,-91.5 "/>
<text text-anchor="middle" x="133.5" y="-69.8" font-family="Times,serif" font-size="14.00">grad: 13.00</text>
</g>
<!-- op_0x7e855f114dac7f8b -->
<g id="node4" class="node">
<title>op_0x7e855f114dac7f8b</title>
<ellipse fill="none" stroke="black" cx="236" cy="-100.5" rx="27" ry="18"/>
<text text-anchor="middle" x="236" y="-96.8" font-family="Times,serif" font-size="14.00">*</text>
</g>
<!-- dat_0xecd3aa2310a50092&#45;&gt;op_0x7e855f114dac7f8b -->
<g id="edge2" class="edge">
<title>dat_0xecd3aa2310a50092&#45;&gt;op_0x7e855f114dac7f8b</title>
<path fill="none" stroke="black" d="M173.3,-89.21C182.66,-90.92 191.75,-92.58 199.95,-94.08"/>
<polygon fill="black" stroke="black" points="199.35,-97.53 209.82,-95.89 200.61,-90.65 199.35,-97.53"/>
</g>
<!-- op_0x9abe524ebed03e8b -->
<g id="node7" class="node">
<title>op_0x9abe524ebed03e8b</title>
<ellipse fill="none" stroke="black" cx="236" cy="-45.5" rx="27" ry="18"/>
<text text-anchor="middle" x="236" y="-41.8" font-family="Times,serif" font-size="14.00">*</text>
</g>
<!-- dat_0xecd3aa2310a50092&#45;&gt;op_0x9abe524ebed03e8b -->
<g id="edge6" class="edge">
<title>dat_0xecd3aa2310a50092&#45;&gt;op_0x9abe524ebed03e8b</title>
<path fill="none" stroke="black" d="M173.3,-57.21C182.66,-55.44 191.75,-53.71 199.95,-52.15"/>
<polygon fill="black" stroke="black" points="200.64,-55.58 209.82,-50.28 199.34,-48.71 200.64,-55.58"/>
</g>
<!-- dat_0xb337aff8723416c9 -->
<g id="node2" class="node">
<title>dat_0xb337aff8723416c9</title>
<polygon fill="none" stroke="black" points="3.5,-110.5 3.5,-146.5 169.5,-146.5 169.5,-110.5 3.5,-110.5"/>
<text text-anchor="middle" x="15" y="-124.8" font-family="Times,serif" font-size="14.00">b</text>
<polyline fill="none" stroke="black" points="26.5,-110.5 26.5,-146.5 "/>
<text text-anchor="middle" x="62" y="-124.8" font-family="Times,serif" font-size="14.00">data: 3.00</text>
<polyline fill="none" stroke="black" points="97.5,-110.5 97.5,-146.5 "/>
<text text-anchor="middle" x="133.5" y="-124.8" font-family="Times,serif" font-size="14.00">grad: 2.00</text>
</g>
<!-- dat_0xb337aff8723416c9&#45;&gt;op_0x7e855f114dac7f8b -->
<g id="edge3" class="edge">
<title>dat_0xb337aff8723416c9&#45;&gt;op_0x7e855f114dac7f8b</title>
<path fill="none" stroke="black" d="M169.87,-112.86C180.42,-110.86 190.73,-108.9 199.92,-107.16"/>
<polygon fill="black" stroke="black" points="200.61,-110.59 209.78,-105.29 199.3,-103.71 200.61,-110.59"/>
</g>
<!-- dat_0x7e855f114dac7f8b -->
<g id="node3" class="node">
<title>dat_0x7e855f114dac7f8b</title>
<polygon fill="none" stroke="black" points="302,-82.5 302,-118.5 465,-118.5 465,-82.5 302,-82.5"/>
<text text-anchor="middle" x="312" y="-96.8" font-family="Times,serif" font-size="14.00"> </text>
<polyline fill="none" stroke="black" points="322,-82.5 322,-118.5 "/>
<text text-anchor="middle" x="357.5" y="-96.8" font-family="Times,serif" font-size="14.00">data: 6.00</text>
<polyline fill="none" stroke="black" points="393,-82.5 393,-118.5 "/>
<text text-anchor="middle" x="429" y="-96.8" font-family="Times,serif" font-size="14.00">grad: 1.00</text>
</g>
<!-- op_0x852fa75b8bc6a508 -->
<g id="node9" class="node">
<title>op_0x852fa75b8bc6a508</title>
<ellipse fill="none" stroke="black" cx="531" cy="-72.5" rx="27" ry="18"/>
<text text-anchor="middle" x="531" y="-68.8" font-family="Times,serif" font-size="14.00">+</text>
</g>
<!-- dat_0x7e855f114dac7f8b&#45;&gt;op_0x852fa75b8bc6a508 -->
<g id="edge8" class="edge">
<title>dat_0x7e855f114dac7f8b&#45;&gt;op_0x852fa75b8bc6a508</title>
<path fill="none" stroke="black" d="M465.33,-84.94C475.68,-82.95 485.8,-81.01 494.85,-79.26"/>
<polygon fill="black" stroke="black" points="495.77,-82.65 504.93,-77.32 494.45,-75.78 495.77,-82.65"/>
</g>
<!-- op_0x7e855f114dac7f8b&#45;&gt;dat_0x7e855f114dac7f8b -->
<g id="edge1" class="edge">
<title>op_0x7e855f114dac7f8b&#45;&gt;dat_0x7e855f114dac7f8b</title>
<path fill="none" stroke="black" d="M263.01,-100.5C271.44,-100.5 281.31,-100.5 291.71,-100.5"/>
<polygon fill="black" stroke="black" points="291.81,-104 301.81,-100.5 291.81,-97 291.81,-104"/>
</g>
<!-- dat_0x0ff05a311e742711 -->
<g id="node5" class="node">
<title>dat_0x0ff05a311e742711</title>
<polygon fill="none" stroke="black" points="0.5,-0.5 0.5,-36.5 172.5,-36.5 172.5,-0.5 0.5,-0.5"/>
<text text-anchor="middle" x="12" y="-14.8" font-family="Times,serif" font-size="14.00">c</text>
<polyline fill="none" stroke="black" points="23.5,-0.5 23.5,-36.5 "/>
<text text-anchor="middle" x="62" y="-14.8" font-family="Times,serif" font-size="14.00">data: 10.00</text>
<polyline fill="none" stroke="black" points="100.5,-0.5 100.5,-36.5 "/>
<text text-anchor="middle" x="136.5" y="-14.8" font-family="Times,serif" font-size="14.00">grad: 2.00</text>
</g>
<!-- dat_0x0ff05a311e742711&#45;&gt;op_0x9abe524ebed03e8b -->
<g id="edge5" class="edge">
<title>dat_0x0ff05a311e742711&#45;&gt;op_0x9abe524ebed03e8b</title>
<path fill="none" stroke="black" d="M172.87,-34.13C182.28,-35.85 191.43,-37.52 199.69,-39.04"/>
<polygon fill="black" stroke="black" points="199.15,-42.5 209.62,-40.85 200.41,-35.61 199.15,-42.5"/>
</g>
<!-- dat_0x9abe524ebed03e8b -->
<g id="node6" class="node">
<title>dat_0x9abe524ebed03e8b</title>
<polygon fill="none" stroke="black" points="299,-27.5 299,-63.5 468,-63.5 468,-27.5 299,-27.5"/>
<text text-anchor="middle" x="309" y="-41.8" font-family="Times,serif" font-size="14.00"> </text>
<polyline fill="none" stroke="black" points="319,-27.5 319,-63.5 "/>
<text text-anchor="middle" x="357.5" y="-41.8" font-family="Times,serif" font-size="14.00">data: 20.00</text>
<polyline fill="none" stroke="black" points="396,-27.5 396,-63.5 "/>
<text text-anchor="middle" x="432" y="-41.8" font-family="Times,serif" font-size="14.00">grad: 1.00</text>
</g>
<!-- dat_0x9abe524ebed03e8b&#45;&gt;op_0x852fa75b8bc6a508 -->
<g id="edge9" class="edge">
<title>dat_0x9abe524ebed03e8b&#45;&gt;op_0x852fa75b8bc6a508</title>
<path fill="none" stroke="black" d="M468.29,-61.05C477.62,-62.78 486.7,-64.47 494.9,-65.99"/>
<polygon fill="black" stroke="black" points="494.3,-69.43 504.77,-67.82 495.57,-62.55 494.3,-69.43"/>
</g>
<!-- op_0x9abe524ebed03e8b&#45;&gt;dat_0x9abe524ebed03e8b -->
<g id="edge4" class="edge">
<title>op_0x9abe524ebed03e8b&#45;&gt;dat_0x9abe524ebed03e8b</title>
<path fill="none" stroke="black" d="M263.01,-45.5C270.58,-45.5 279.31,-45.5 288.54,-45.5"/>
<polygon fill="black" stroke="black" points="288.72,-49 298.72,-45.5 288.72,-42 288.72,-49"/>
</g>
<!-- dat_0x852fa75b8bc6a508 -->
<g id="node8" class="node">
<title>dat_0x852fa75b8bc6a508</title>
<polygon fill="none" stroke="black" points="594,-54.5 594,-90.5 766,-90.5 766,-54.5 594,-54.5"/>
<text text-anchor="middle" x="605.5" y="-68.8" font-family="Times,serif" font-size="14.00">d</text>
<polyline fill="none" stroke="black" points="617,-54.5 617,-90.5 "/>
<text text-anchor="middle" x="655.5" y="-68.8" font-family="Times,serif" font-size="14.00">data: 26.00</text>
<polyline fill="none" stroke="black" points="694,-54.5 694,-90.5 "/>
<text text-anchor="middle" x="730" y="-68.8" font-family="Times,serif" font-size="14.00">grad: 1.00</text>
</g>
<!-- op_0x852fa75b8bc6a508&#45;&gt;dat_0x852fa75b8bc6a508 -->
<g id="edge7" class="edge">
<title>op_0x852fa75b8bc6a508&#45;&gt;dat_0x852fa75b8bc6a508</title>
<path fill="none" stroke="black" d="M558.28,-72.5C565.8,-72.5 574.46,-72.5 583.63,-72.5"/>
<polygon fill="black" stroke="black" points="583.74,-76 593.74,-72.5 583.74,-69 583.74,-76"/>
</g>
</g>
</svg>
