<?xml version="1.0" encoding="UTF-8" standalone="no"?>
<!DOCTYPE svg PUBLIC "-//W3C//DTD SVG 1.1//EN"
 "http://www.w3.org/Graphics/SVG/1.1/DTD/svg11.dtd">
<!-- Generated by graphviz version 2.50.0 (0)
 -->
<!-- Pages: 1 -->
<svg width="1369pt" height="210pt"
 viewBox="0.00 0.00 1369.00 210.00" xmlns="http://www.w3.org/2000/svg" xmlns:xlink="http://www.w3.org/1999/xlink">
<g id="graph0" class="graph" transform="scale(1 1) rotate(0) translate(4 206)">
<polygon fill="white" stroke="transparent" points="-4,4 -4,-206 1365,-206 1365,4 -4,4"/>
<!-- dat_0x54dcf3f37a11bb82 -->
<g id="node1" class="node">
<title>dat_0x54dcf3f37a11bb82</title>
<polygon fill="none" stroke="black" points="1184,-54.5 1184,-90.5 1361,-90.5 1361,-54.5 1184,-54.5"/>
<text text-anchor="middle" x="1201" y="-68.8" font-family="Times,serif" font-size="14.00">out</text>
<polyline fill="none" stroke="black" points="1218,-54.5 1218,-90.5 "/>
<text text-anchor="middle" x="1253.5" y="-68.8" font-family="Times,serif" font-size="14.00">data: 0.71</text>
<polyline fill="none" stroke="black" points="1289,-54.5 1289,-90.5 "/>
<text text-anchor="middle" x="1325" y="-68.8" font-family="Times,serif" font-size="14.00">grad: 1.00</text>
</g>
<!-- op_0x54dcf3f37a11bb82 -->
<g id="node2" class="node">
<title>op_0x54dcf3f37a11bb82</title>
<ellipse fill="none" stroke="black" cx="1121" cy="-72.5" rx="27" ry="18"/>
<text text-anchor="middle" x="1121" y="-68.8" font-family="Times,serif" font-size="14.00">tanh</text>
</g>
<!-- op_0x54dcf3f37a11bb82&#45;&gt;dat_0x54dcf3f37a11bb82 -->
<g id="edge1" class="edge">
<title>op_0x54dcf3f37a11bb82&#45;&gt;dat_0x54dcf3f37a11bb82</title>
<path fill="none" stroke="black" d="M1148.04,-72.5C1155.6,-72.5 1164.33,-72.5 1173.59,-72.5"/>
<polygon fill="black" stroke="black" points="1173.81,-76 1183.81,-72.5 1173.81,-69 1173.81,-76"/>
</g>
<!-- dat_0x84b8192836b44672 -->
<g id="node3" class="node">
<title>dat_0x84b8192836b44672</title>
<polygon fill="none" stroke="black" points="892,-54.5 892,-90.5 1058,-90.5 1058,-54.5 892,-54.5"/>
<text text-anchor="middle" x="903.5" y="-68.8" font-family="Times,serif" font-size="14.00">n</text>
<polyline fill="none" stroke="black" points="915,-54.5 915,-90.5 "/>
<text text-anchor="middle" x="950.5" y="-68.8" font-family="Times,serif" font-size="14.00">data: 0.88</text>
<polyline fill="none" stroke="black" points="986,-54.5 986,-90.5 "/>
<text text-anchor="middle" x="1022" y="-68.8" font-family="Times,serif" font-size="14.00">grad: 0.50</text>
</g>
<!-- dat_0x84b8192836b44672&#45;&gt;op_0x54dcf3f37a11bb82 -->
<g id="edge14" class="edge">
<title>dat_0x84b8192836b44672&#45;&gt;op_0x54dcf3f37a11bb82</title>
<path fill="none" stroke="black" d="M1058.1,-72.5C1066.95,-72.5 1075.6,-72.5 1083.5,-72.5"/>
<polygon fill="black" stroke="black" points="1083.73,-76 1093.73,-72.5 1083.73,-69 1083.73,-76"/>
</g>
<!-- op_0x84b8192836b44672 -->
<g id="node4" class="node">
<title>op_0x84b8192836b44672</title>
<ellipse fill="none" stroke="black" cx="829" cy="-72.5" rx="27" ry="18"/>
<text text-anchor="middle" x="829" y="-68.8" font-family="Times,serif" font-size="14.00">+</text>
</g>
<!-- op_0x84b8192836b44672&#45;&gt;dat_0x84b8192836b44672 -->
<g id="edge2" class="edge">
<title>op_0x84b8192836b44672&#45;&gt;dat_0x84b8192836b44672</title>
<path fill="none" stroke="black" d="M856.08,-72.5C863.64,-72.5 872.35,-72.5 881.56,-72.5"/>
<polygon fill="black" stroke="black" points="881.7,-76 891.7,-72.5 881.7,-69 881.7,-76"/>
</g>
<!-- dat_0x43e0ae21bc60f30b -->
<g id="node5" class="node">
<title>dat_0x43e0ae21bc60f30b</title>
<polygon fill="none" stroke="black" points="599,-82.5 599,-118.5 766,-118.5 766,-82.5 599,-82.5"/>
<text text-anchor="middle" x="609" y="-96.8" font-family="Times,serif" font-size="14.00"> </text>
<polyline fill="none" stroke="black" points="619,-82.5 619,-118.5 "/>
<text text-anchor="middle" x="656.5" y="-96.8" font-family="Times,serif" font-size="14.00">data: &#45;6.00</text>
<polyline fill="none" stroke="black" points="694,-82.5 694,-118.5 "/>
<text text-anchor="middle" x="730" y="-96.8" font-family="Times,serif" font-size="14.00">grad: 0.50</text>
</g>
<!-- dat_0x43e0ae21bc60f30b&#45;&gt;op_0x84b8192836b44672 -->
<g id="edge12" class="edge">
<title>dat_0x43e0ae21bc60f30b&#45;&gt;op_0x84b8192836b44672</title>
<path fill="none" stroke="black" d="M766.3,-84.46C775.61,-82.65 784.68,-80.89 792.88,-79.31"/>
<polygon fill="black" stroke="black" points="793.59,-82.73 802.75,-77.39 792.26,-75.86 793.59,-82.73"/>
</g>
<!-- op_0x43e0ae21bc60f30b -->
<g id="node6" class="node">
<title>op_0x43e0ae21bc60f30b</title>
<ellipse fill="none" stroke="black" cx="536" cy="-100.5" rx="27" ry="18"/>
<text text-anchor="middle" x="536" y="-96.8" font-family="Times,serif" font-size="14.00">+</text>
</g>
<!-- op_0x43e0ae21bc60f30b&#45;&gt;dat_0x43e0ae21bc60f30b -->
<g id="edge3" class="edge">
<title>op_0x43e0ae21bc60f30b&#45;&gt;dat_0x43e0ae21bc60f30b</title>
<path fill="none" stroke="black" d="M563.17,-100.5C570.75,-100.5 579.5,-100.5 588.74,-100.5"/>
<polygon fill="black" stroke="black" points="588.92,-104 598.92,-100.5 588.92,-97 588.92,-104"/>
</g>
<!-- dat_0x884dcdaa5aa71eaf -->
<g id="node7" class="node">
<title>dat_0x884dcdaa5aa71eaf</title>
<polygon fill="none" stroke="black" points="306,-110.5 306,-146.5 473,-146.5 473,-110.5 306,-110.5"/>
<text text-anchor="middle" x="316" y="-124.8" font-family="Times,serif" font-size="14.00"> </text>
<polyline fill="none" stroke="black" points="326,-110.5 326,-146.5 "/>
<text text-anchor="middle" x="363.5" y="-124.8" font-family="Times,serif" font-size="14.00">data: &#45;6.00</text>
<polyline fill="none" stroke="black" points="401,-110.5 401,-146.5 "/>
<text text-anchor="middle" x="437" y="-124.8" font-family="Times,serif" font-size="14.00">grad: 0.50</text>
</g>
<!-- dat_0x884dcdaa5aa71eaf&#45;&gt;op_0x43e0ae21bc60f30b -->
<g id="edge7" class="edge">
<title>dat_0x884dcdaa5aa71eaf&#45;&gt;op_0x43e0ae21bc60f30b</title>
<path fill="none" stroke="black" d="M473.3,-112.46C482.61,-110.65 491.68,-108.89 499.88,-107.31"/>
<polygon fill="black" stroke="black" points="500.59,-110.73 509.75,-105.39 499.26,-103.86 500.59,-110.73"/>
</g>
<!-- op_0x884dcdaa5aa71eaf -->
<g id="node8" class="node">
<title>op_0x884dcdaa5aa71eaf</title>
<ellipse fill="none" stroke="black" cx="243" cy="-128.5" rx="27" ry="18"/>
<text text-anchor="middle" x="243" y="-124.8" font-family="Times,serif" font-size="14.00">*</text>
</g>
<!-- op_0x884dcdaa5aa71eaf&#45;&gt;dat_0x884dcdaa5aa71eaf -->
<g id="edge4" class="edge">
<title>op_0x884dcdaa5aa71eaf&#45;&gt;dat_0x884dcdaa5aa71eaf</title>
<path fill="none" stroke="black" d="M270.17,-128.5C277.75,-128.5 286.5,-128.5 295.74,-128.5"/>
<polygon fill="black" stroke="black" points="295.92,-132 305.92,-128.5 295.92,-125 295.92,-132"/>
</g>
<!-- dat_0x8a81d78b129aa88f -->
<g id="node9" class="node">
<title>dat_0x8a81d78b129aa88f</title>
<polygon fill="none" stroke="black" points="1,-165.5 1,-201.5 179,-201.5 179,-165.5 1,-165.5"/>
<text text-anchor="middle" x="16" y="-179.8" font-family="Times,serif" font-size="14.00">x1</text>
<polyline fill="none" stroke="black" points="31,-165.5 31,-201.5 "/>
<text text-anchor="middle" x="66.5" y="-179.8" font-family="Times,serif" font-size="14.00">data: 2.00</text>
<polyline fill="none" stroke="black" points="102,-165.5 102,-201.5 "/>
<text text-anchor="middle" x="140.5" y="-179.8" font-family="Times,serif" font-size="14.00">grad: &#45;1.50</text>
</g>
<!-- dat_0x8a81d78b129aa88f&#45;&gt;op_0x884dcdaa5aa71eaf -->
<g id="edge5" class="edge">
<title>dat_0x8a81d78b129aa88f&#45;&gt;op_0x884dcdaa5aa71eaf</title>
<path fill="none" stroke="black" d="M154.07,-165.48C162.84,-162.65 171.69,-159.62 180,-156.5 190.47,-152.57 201.68,-147.71 211.65,-143.15"/>
<polygon fill="black" stroke="black" points="213.18,-146.3 220.77,-138.91 210.22,-139.96 213.18,-146.3"/>
</g>
<!-- dat_0xa7c26c0bd7790283 -->
<g id="node10" class="node">
<title>dat_0xa7c26c0bd7790283</title>
<polygon fill="none" stroke="black" points="0,-110.5 0,-146.5 180,-146.5 180,-110.5 0,-110.5"/>
<text text-anchor="middle" x="16.5" y="-124.8" font-family="Times,serif" font-size="14.00">w1</text>
<polyline fill="none" stroke="black" points="33,-110.5 33,-146.5 "/>
<text text-anchor="middle" x="70.5" y="-124.8" font-family="Times,serif" font-size="14.00">data: &#45;3.00</text>
<polyline fill="none" stroke="black" points="108,-110.5 108,-146.5 "/>
<text text-anchor="middle" x="144" y="-124.8" font-family="Times,serif" font-size="14.00">grad: 1.00</text>
</g>
<!-- dat_0xa7c26c0bd7790283&#45;&gt;op_0x884dcdaa5aa71eaf -->
<g id="edge6" class="edge">
<title>dat_0xa7c26c0bd7790283&#45;&gt;op_0x884dcdaa5aa71eaf</title>
<path fill="none" stroke="black" d="M180.15,-128.5C189.1,-128.5 197.79,-128.5 205.69,-128.5"/>
<polygon fill="black" stroke="black" points="205.92,-132 215.92,-128.5 205.92,-125 205.92,-132"/>
</g>
<!-- dat_0xe8def3d483c42bc5 -->
<g id="node11" class="node">
<title>dat_0xe8def3d483c42bc5</title>
<polygon fill="none" stroke="black" points="308,-55.5 308,-91.5 471,-91.5 471,-55.5 308,-55.5"/>
<text text-anchor="middle" x="318" y="-69.8" font-family="Times,serif" font-size="14.00"> </text>
<polyline fill="none" stroke="black" points="328,-55.5 328,-91.5 "/>
<text text-anchor="middle" x="363.5" y="-69.8" font-family="Times,serif" font-size="14.00">data: 0.00</text>
<polyline fill="none" stroke="black" points="399,-55.5 399,-91.5 "/>
<text text-anchor="middle" x="435" y="-69.8" font-family="Times,serif" font-size="14.00">grad: 0.50</text>
</g>
<!-- dat_0xe8def3d483c42bc5&#45;&gt;op_0x43e0ae21bc60f30b -->
<g id="edge11" class="edge">
<title>dat_0xe8def3d483c42bc5&#45;&gt;op_0x43e0ae21bc60f30b</title>
<path fill="none" stroke="black" d="M471.2,-88.58C481.13,-90.43 490.84,-92.25 499.57,-93.88"/>
<polygon fill="black" stroke="black" points="499.21,-97.37 509.69,-95.77 500.5,-90.49 499.21,-97.37"/>
</g>
<!-- op_0xe8def3d483c42bc5 -->
<g id="node12" class="node">
<title>op_0xe8def3d483c42bc5</title>
<ellipse fill="none" stroke="black" cx="243" cy="-73.5" rx="27" ry="18"/>
<text text-anchor="middle" x="243" y="-69.8" font-family="Times,serif" font-size="14.00">*</text>
</g>
<!-- op_0xe8def3d483c42bc5&#45;&gt;dat_0xe8def3d483c42bc5 -->
<g id="edge8" class="edge">
<title>op_0xe8def3d483c42bc5&#45;&gt;dat_0xe8def3d483c42bc5</title>
<path fill="none" stroke="black" d="M270.17,-73.5C278.28,-73.5 287.72,-73.5 297.67,-73.5"/>
<polygon fill="black" stroke="black" points="297.76,-77 307.76,-73.5 297.76,-70 297.76,-77"/>
</g>
<!-- dat_0xe083447dcffbe461 -->
<g id="node13" class="node">
<title>dat_0xe083447dcffbe461</title>
<polygon fill="none" stroke="black" points="3.5,-55.5 3.5,-91.5 176.5,-91.5 176.5,-55.5 3.5,-55.5"/>
<text text-anchor="middle" x="18.5" y="-69.8" font-family="Times,serif" font-size="14.00">x2</text>
<polyline fill="none" stroke="black" points="33.5,-55.5 33.5,-91.5 "/>
<text text-anchor="middle" x="69" y="-69.8" font-family="Times,serif" font-size="14.00">data: 0.00</text>
<polyline fill="none" stroke="black" points="104.5,-55.5 104.5,-91.5 "/>
<text text-anchor="middle" x="140.5" y="-69.8" font-family="Times,serif" font-size="14.00">grad: 0.50</text>
</g>
<!-- dat_0xe083447dcffbe461&#45;&gt;op_0xe8def3d483c42bc5 -->
<g id="edge9" class="edge">
<title>dat_0xe083447dcffbe461&#45;&gt;op_0xe8def3d483c42bc5</title>
<path fill="none" stroke="black" d="M176.65,-73.5C186.89,-73.5 196.87,-73.5 205.83,-73.5"/>
<polygon fill="black" stroke="black" points="205.83,-77 215.83,-73.5 205.83,-70 205.83,-77"/>
</g>
<!-- dat_0xa708e55f0cf15d29 -->
<g id="node14" class="node">
<title>dat_0xa708e55f0cf15d29</title>
<polygon fill="none" stroke="black" points="2,-0.5 2,-36.5 178,-36.5 178,-0.5 2,-0.5"/>
<text text-anchor="middle" x="18.5" y="-14.8" font-family="Times,serif" font-size="14.00">w2</text>
<polyline fill="none" stroke="black" points="35,-0.5 35,-36.5 "/>
<text text-anchor="middle" x="70.5" y="-14.8" font-family="Times,serif" font-size="14.00">data: 1.00</text>
<polyline fill="none" stroke="black" points="106,-0.5 106,-36.5 "/>
<text text-anchor="middle" x="142" y="-14.8" font-family="Times,serif" font-size="14.00">grad: 0.00</text>
</g>
<!-- dat_0xa708e55f0cf15d29&#45;&gt;op_0xe8def3d483c42bc5 -->
<g id="edge10" class="edge">
<title>dat_0xa708e55f0cf15d29&#45;&gt;op_0xe8def3d483c42bc5</title>
<path fill="none" stroke="black" d="M154.07,-36.52C162.84,-39.35 171.69,-42.38 180,-45.5 190.47,-49.43 201.68,-54.29 211.65,-58.85"/>
<polygon fill="black" stroke="black" points="210.22,-62.04 220.77,-63.09 213.18,-55.7 210.22,-62.04"/>
</g>
<!-- dat_0x871db47e63c11b6e -->
<g id="node15" class="node">
<title>dat_0x871db47e63c11b6e</title>
<polygon fill="none" stroke="black" points="599.5,-27.5 599.5,-63.5 765.5,-63.5 765.5,-27.5 599.5,-27.5"/>
<text text-anchor="middle" x="611" y="-41.8" font-family="Times,serif" font-size="14.00">b</text>
<polyline fill="none" stroke="black" points="622.5,-27.5 622.5,-63.5 "/>
<text text-anchor="middle" x="658" y="-41.8" font-family="Times,serif" font-size="14.00">data: 6.88</text>
<polyline fill="none" stroke="black" points="693.5,-27.5 693.5,-63.5 "/>
<text text-anchor="middle" x="729.5" y="-41.8" font-family="Times,serif" font-size="14.00">grad: 0.50</text>
</g>
<!-- dat_0x871db47e63c11b6e&#45;&gt;op_0x84b8192836b44672 -->
<g id="edge13" class="edge">
<title>dat_0x871db47e63c11b6e&#45;&gt;op_0x84b8192836b44672</title>
<path fill="none" stroke="black" d="M765.88,-60.89C775.33,-62.66 784.54,-64.38 792.85,-65.93"/>
<polygon fill="black" stroke="black" points="792.38,-69.4 802.85,-67.8 793.66,-62.52 792.38,-69.4"/>
</g>
</g>
</svg>
