<?xml version="1.0" encoding="UTF-8" standalone="no"?>
<!DOCTYPE svg PUBLIC "-//W3C//DTD SVG 1.1//EN"
 "http://www.w3.org/Graphics/SVG/1.1/DTD/svg11.dtd">
<!-- Generated by graphviz version 2.50.0 (0)
 -->
<!-- Pages: 1 -->
<svg width="1076pt" height="210pt"
 viewBox="0.00 0.00 1076.00 210.00" xmlns="http://www.w3.org/2000/svg" xmlns:xlink="http://www.w3.org/1999/xlink">
<g id="graph0" class="graph" transform="scale(1 1) rotate(0) translate(4 206)">
<polygon fill="white" stroke="transparent" points="-4,4 -4,-206 1072,-206 1072,4 -4,4"/>
<!-- dat_0xd1677cf1bf344c49 -->
<g id="node1" class="node">
<title>dat_0xd1677cf1bf344c49</title>
<polygon fill="none" stroke="black" points="1,-165.5 1,-201.5 179,-201.5 179,-165.5 1,-165.5"/>
<text text-anchor="middle" x="16" y="-179.8" font-family="Times,serif" font-size="14.00">x1</text>
<polyline fill="none" stroke="black" points="31,-165.5 31,-201.5 "/>
<text text-anchor="middle" x="66.5" y="-179.8" font-family="Times,serif" font-size="14.00">data: 2.00</text>
<polyline fill="none" stroke="black" points="102,-165.5 102,-201.5 "/>
<text text-anchor="middle" x="140.5" y="-179.8" font-family="Times,serif" font-size="14.00">grad: &#45;1.50</text>
</g>
<!-- op_0xeb2951f20b49b28c -->
<g id="node4" class="node">
<title>op_0xeb2951f20b49b28c</title>
<ellipse fill="none" stroke="black" cx="243" cy="-128.5" rx="27" ry="18"/>
<text text-anchor="middle" x="243" y="-124.8" font-family="Times,serif" font-size="14.00">*</text>
</g>
<!-- dat_0xd1677cf1bf344c49&#45;&gt;op_0xeb2951f20b49b28c -->
<g id="edge2" class="edge">
<title>dat_0xd1677cf1bf344c49&#45;&gt;op_0xeb2951f20b49b28c</title>
<path fill="none" stroke="black" d="M154.07,-165.48C162.84,-162.65 171.69,-159.62 180,-156.5 190.47,-152.57 201.68,-147.71 211.65,-143.15"/>
<polygon fill="black" stroke="black" points="213.18,-146.3 220.77,-138.91 210.22,-139.96 213.18,-146.3"/>
</g>
<!-- dat_0xf3912c96305ce920 -->
<g id="node2" class="node">
<title>dat_0xf3912c96305ce920</title>
<polygon fill="none" stroke="black" points="0,-110.5 0,-146.5 180,-146.5 180,-110.5 0,-110.5"/>
<text text-anchor="middle" x="16.5" y="-124.8" font-family="Times,serif" font-size="14.00">w1</text>
<polyline fill="none" stroke="black" points="33,-110.5 33,-146.5 "/>
<text text-anchor="middle" x="70.5" y="-124.8" font-family="Times,serif" font-size="14.00">data: &#45;3.00</text>
<polyline fill="none" stroke="black" points="108,-110.5 108,-146.5 "/>
<text text-anchor="middle" x="144" y="-124.8" font-family="Times,serif" font-size="14.00">grad: 1.00</text>
</g>
<!-- dat_0xf3912c96305ce920&#45;&gt;op_0xeb2951f20b49b28c -->
<g id="edge3" class="edge">
<title>dat_0xf3912c96305ce920&#45;&gt;op_0xeb2951f20b49b28c</title>
<path fill="none" stroke="black" d="M180.15,-128.5C189.1,-128.5 197.79,-128.5 205.69,-128.5"/>
<polygon fill="black" stroke="black" points="205.92,-132 215.92,-128.5 205.92,-125 205.92,-132"/>
</g>
<!-- dat_0xeb2951f20b49b28c -->
<g id="node3" class="node">
<title>dat_0xeb2951f20b49b28c</title>
<polygon fill="none" stroke="black" points="306,-110.5 306,-146.5 473,-146.5 473,-110.5 306,-110.5"/>
<text text-anchor="middle" x="316" y="-124.8" font-family="Times,serif" font-size="14.00"> </text>
<polyline fill="none" stroke="black" points="326,-110.5 326,-146.5 "/>
<text text-anchor="middle" x="363.5" y="-124.8" font-family="Times,serif" font-size="14.00">data: &#45;6.00</text>
<polyline fill="none" stroke="black" points="401,-110.5 401,-146.5 "/>
<text text-anchor="middle" x="437" y="-124.8" font-family="Times,serif" font-size="14.00">grad: 0.50</text>
</g>
<!-- op_0x8c2e9b08e955f065 -->
<g id="node11" class="node">
<title>op_0x8c2e9b08e955f065</title>
<ellipse fill="none" stroke="black" cx="536" cy="-73.5" rx="27" ry="18"/>
<text text-anchor="middle" x="536" y="-69.8" font-family="Times,serif" font-size="14.00">+</text>
</g>
<!-- dat_0xeb2951f20b49b28c&#45;&gt;op_0x8c2e9b08e955f065 -->
<g id="edge8" class="edge">
<title>dat_0xeb2951f20b49b28c&#45;&gt;op_0x8c2e9b08e955f065</title>
<path fill="none" stroke="black" d="M448.48,-110.4C456.76,-107.56 465.13,-104.55 473,-101.5 483.43,-97.45 494.63,-92.57 504.6,-88.02"/>
<polygon fill="black" stroke="black" points="506.12,-91.17 513.72,-83.8 503.18,-84.82 506.12,-91.17"/>
</g>
<!-- op_0xeb2951f20b49b28c&#45;&gt;dat_0xeb2951f20b49b28c -->
<g id="edge1" class="edge">
<title>op_0xeb2951f20b49b28c&#45;&gt;dat_0xeb2951f20b49b28c</title>
<path fill="none" stroke="black" d="M270.17,-128.5C277.75,-128.5 286.5,-128.5 295.74,-128.5"/>
<polygon fill="black" stroke="black" points="295.92,-132 305.92,-128.5 295.92,-125 295.92,-132"/>
</g>
<!-- dat_0xac170ec6c738fe54 -->
<g id="node5" class="node">
<title>dat_0xac170ec6c738fe54</title>
<polygon fill="none" stroke="black" points="3.5,-55.5 3.5,-91.5 176.5,-91.5 176.5,-55.5 3.5,-55.5"/>
<text text-anchor="middle" x="18.5" y="-69.8" font-family="Times,serif" font-size="14.00">x2</text>
<polyline fill="none" stroke="black" points="33.5,-55.5 33.5,-91.5 "/>
<text text-anchor="middle" x="69" y="-69.8" font-family="Times,serif" font-size="14.00">data: 0.00</text>
<polyline fill="none" stroke="black" points="104.5,-55.5 104.5,-91.5 "/>
<text text-anchor="middle" x="140.5" y="-69.8" font-family="Times,serif" font-size="14.00">grad: 0.50</text>
</g>
<!-- op_0xa9aac5e4b2a7ce9f -->
<g id="node8" class="node">
<title>op_0xa9aac5e4b2a7ce9f</title>
<ellipse fill="none" stroke="black" cx="243" cy="-73.5" rx="27" ry="18"/>
<text text-anchor="middle" x="243" y="-69.8" font-family="Times,serif" font-size="14.00">*</text>
</g>
<!-- dat_0xac170ec6c738fe54&#45;&gt;op_0xa9aac5e4b2a7ce9f -->
<g id="edge5" class="edge">
<title>dat_0xac170ec6c738fe54&#45;&gt;op_0xa9aac5e4b2a7ce9f</title>
<path fill="none" stroke="black" d="M176.65,-73.5C186.89,-73.5 196.87,-73.5 205.83,-73.5"/>
<polygon fill="black" stroke="black" points="205.83,-77 215.83,-73.5 205.83,-70 205.83,-77"/>
</g>
<!-- dat_0x931b7e3e414bd6bf -->
<g id="node6" class="node">
<title>dat_0x931b7e3e414bd6bf</title>
<polygon fill="none" stroke="black" points="2,-0.5 2,-36.5 178,-36.5 178,-0.5 2,-0.5"/>
<text text-anchor="middle" x="18.5" y="-14.8" font-family="Times,serif" font-size="14.00">w2</text>
<polyline fill="none" stroke="black" points="35,-0.5 35,-36.5 "/>
<text text-anchor="middle" x="70.5" y="-14.8" font-family="Times,serif" font-size="14.00">data: 1.00</text>
<polyline fill="none" stroke="black" points="106,-0.5 106,-36.5 "/>
<text text-anchor="middle" x="142" y="-14.8" font-family="Times,serif" font-size="14.00">grad: 0.00</text>
</g>
<!-- dat_0x931b7e3e414bd6bf&#45;&gt;op_0xa9aac5e4b2a7ce9f -->
<g id="edge6" class="edge">
<title>dat_0x931b7e3e414bd6bf&#45;&gt;op_0xa9aac5e4b2a7ce9f</title>
<path fill="none" stroke="black" d="M151.62,-36.62C161.17,-39.75 170.9,-43.1 180,-46.5 190.23,-50.32 201.21,-54.93 211.04,-59.25"/>
<polygon fill="black" stroke="black" points="209.86,-62.56 220.42,-63.43 212.71,-56.17 209.86,-62.56"/>
</g>
<!-- dat_0xa9aac5e4b2a7ce9f -->
<g id="node7" class="node">
<title>dat_0xa9aac5e4b2a7ce9f</title>
<polygon fill="none" stroke="black" points="308,-55.5 308,-91.5 471,-91.5 471,-55.5 308,-55.5"/>
<text text-anchor="middle" x="318" y="-69.8" font-family="Times,serif" font-size="14.00"> </text>
<polyline fill="none" stroke="black" points="328,-55.5 328,-91.5 "/>
<text text-anchor="middle" x="363.5" y="-69.8" font-family="Times,serif" font-size="14.00">data: 0.00</text>
<polyline fill="none" stroke="black" points="399,-55.5 399,-91.5 "/>
<text text-anchor="middle" x="435" y="-69.8" font-family="Times,serif" font-size="14.00">grad: 0.50</text>
</g>
<!-- dat_0xa9aac5e4b2a7ce9f&#45;&gt;op_0x8c2e9b08e955f065 -->
<g id="edge9" class="edge">
<title>dat_0xa9aac5e4b2a7ce9f&#45;&gt;op_0x8c2e9b08e955f065</title>
<path fill="none" stroke="black" d="M471.2,-73.5C480.75,-73.5 490.09,-73.5 498.56,-73.5"/>
<polygon fill="black" stroke="black" points="498.76,-77 508.76,-73.5 498.76,-70 498.76,-77"/>
</g>
<!-- op_0xa9aac5e4b2a7ce9f&#45;&gt;dat_0xa9aac5e4b2a7ce9f -->
<g id="edge4" class="edge">
<title>op_0xa9aac5e4b2a7ce9f&#45;&gt;dat_0xa9aac5e4b2a7ce9f</title>
<path fill="none" stroke="black" d="M270.17,-73.5C278.28,-73.5 287.72,-73.5 297.67,-73.5"/>
<polygon fill="black" stroke="black" points="297.76,-77 307.76,-73.5 297.76,-70 297.76,-77"/>
</g>
<!-- dat_0x58a77e207ceb399e -->
<g id="node9" class="node">
<title>dat_0x58a77e207ceb399e</title>
<polygon fill="none" stroke="black" points="306.5,-0.5 306.5,-36.5 472.5,-36.5 472.5,-0.5 306.5,-0.5"/>
<text text-anchor="middle" x="318" y="-14.8" font-family="Times,serif" font-size="14.00">b</text>
<polyline fill="none" stroke="black" points="329.5,-0.5 329.5,-36.5 "/>
<text text-anchor="middle" x="365" y="-14.8" font-family="Times,serif" font-size="14.00">data: 6.88</text>
<polyline fill="none" stroke="black" points="400.5,-0.5 400.5,-36.5 "/>
<text text-anchor="middle" x="436.5" y="-14.8" font-family="Times,serif" font-size="14.00">grad: 0.50</text>
</g>
<!-- dat_0x58a77e207ceb399e&#45;&gt;op_0x8c2e9b08e955f065 -->
<g id="edge10" class="edge">
<title>dat_0x58a77e207ceb399e&#45;&gt;op_0x8c2e9b08e955f065</title>
<path fill="none" stroke="black" d="M445.76,-36.54C454.9,-39.73 464.25,-43.12 473,-46.5 483.18,-50.44 494.15,-55.08 503.99,-59.39"/>
<polygon fill="black" stroke="black" points="502.82,-62.7 513.38,-63.55 505.66,-56.3 502.82,-62.7"/>
</g>
<!-- dat_0x8c2e9b08e955f065 -->
<g id="node10" class="node">
<title>dat_0x8c2e9b08e955f065</title>
<polygon fill="none" stroke="black" points="599,-55.5 599,-91.5 765,-91.5 765,-55.5 599,-55.5"/>
<text text-anchor="middle" x="610.5" y="-69.8" font-family="Times,serif" font-size="14.00">n</text>
<polyline fill="none" stroke="black" points="622,-55.5 622,-91.5 "/>
<text text-anchor="middle" x="657.5" y="-69.8" font-family="Times,serif" font-size="14.00">data: 0.88</text>
<polyline fill="none" stroke="black" points="693,-55.5 693,-91.5 "/>
<text text-anchor="middle" x="729" y="-69.8" font-family="Times,serif" font-size="14.00">grad: 0.50</text>
</g>
<!-- op_0xec44661cd4861abb -->
<g id="node13" class="node">
<title>op_0xec44661cd4861abb</title>
<ellipse fill="none" stroke="black" cx="828" cy="-73.5" rx="27" ry="18"/>
<text text-anchor="middle" x="828" y="-69.8" font-family="Times,serif" font-size="14.00">tanh</text>
</g>
<!-- dat_0x8c2e9b08e955f065&#45;&gt;op_0xec44661cd4861abb -->
<g id="edge12" class="edge">
<title>dat_0x8c2e9b08e955f065&#45;&gt;op_0xec44661cd4861abb</title>
<path fill="none" stroke="black" d="M765.1,-73.5C773.95,-73.5 782.6,-73.5 790.5,-73.5"/>
<polygon fill="black" stroke="black" points="790.73,-77 800.73,-73.5 790.73,-70 790.73,-77"/>
</g>
<!-- op_0x8c2e9b08e955f065&#45;&gt;dat_0x8c2e9b08e955f065 -->
<g id="edge7" class="edge">
<title>op_0x8c2e9b08e955f065&#45;&gt;dat_0x8c2e9b08e955f065</title>
<path fill="none" stroke="black" d="M563.08,-73.5C570.64,-73.5 579.35,-73.5 588.56,-73.5"/>
<polygon fill="black" stroke="black" points="588.7,-77 598.7,-73.5 588.7,-70 588.7,-77"/>
</g>
<!-- dat_0xec44661cd4861abb -->
<g id="node12" class="node">
<title>dat_0xec44661cd4861abb</title>
<polygon fill="none" stroke="black" points="891,-55.5 891,-91.5 1068,-91.5 1068,-55.5 891,-55.5"/>
<text text-anchor="middle" x="908" y="-69.8" font-family="Times,serif" font-size="14.00">out</text>
<polyline fill="none" stroke="black" points="925,-55.5 925,-91.5 "/>
<text text-anchor="middle" x="960.5" y="-69.8" font-family="Times,serif" font-size="14.00">data: 0.71</text>
<polyline fill="none" stroke="black" points="996,-55.5 996,-91.5 "/>
<text text-anchor="middle" x="1032" y="-69.8" font-family="Times,serif" font-size="14.00">grad: 1.00</text>
</g>
<!-- op_0xec44661cd4861abb&#45;&gt;dat_0xec44661cd4861abb -->
<g id="edge11" class="edge">
<title>op_0xec44661cd4861abb&#45;&gt;dat_0xec44661cd4861abb</title>
<path fill="none" stroke="black" d="M855.04,-73.5C862.6,-73.5 871.33,-73.5 880.59,-73.5"/>
<polygon fill="black" stroke="black" points="880.81,-77 890.81,-73.5 880.81,-70 880.81,-77"/>
</g>
</g>
</svg>
